<svg xmlns="http://www.w3.org/2000/svg" width="128" height="128" viewBox="0 0 24 24">
  <circle cx="12" cy="12" r="12" fill="#272727"/>
  <g transform="translate(12 12) scale(0.6) translate(-12 -12)">
    <path fill="#f1f1f1" d="M11.313 2.002 C13.401 2.002 15.453 2.548 17.266000000000002 3.585 L17.539 3.741 C17.841361281794747 3.9139744101537883 18.183657509343888 4.00497763681338 18.531999999999996 4.005000000000001 L21 4.005 C21.552284749830793 4.005 22 4.452715250169207 22 5.005 L22 11 C22.00000053112088 11.26556337591055 21.894369192515125 11.520220852129368 21.70640002829608 11.707814828386827 C21.518430864077036 11.895408804644285 21.263562844759658 12.000531126758712 20.997999999975875 11.999999999999952 L18.211000000000002 11.995 C17.785178671842 11.994140539245924 17.405520457167814 12.26303166380375 17.264999999999997 12.665 L14.245000000000001 21.293 C14.106111133017933 21.690346816011548 13.687484986282547 21.91656094499278 13.279000000000002 21.814999999999998 C12.420264399177817 21.601666120840573 11.685036180430256 21.04863068087318 11.241938143416702 20.282731010086348 C10.798840106403148 19.516831339299515 10.685892650723849 18.603786102874608 10.929000000000002 17.752999999999997 L11.636000000000003 15.275999999999996 C11.721907440852 14.974468431252761 11.661422172477852 14.65010099554534 11.472613006791637 14.399796232710546 C11.28380384110542 14.149491469875752 10.988530418006315 14.002228756845474 10.675000000000002 14.001999999999995 L5.3850000000000025 14.001999999999995 C4.536430347838441 14.002228751162564 3.760583372006797 13.522938054516068 3.3810000000000033 12.763999999999996 L3.2010000000000023 12.404999999999996 C2.800159854788302 11.60255540273381 3.057469030276432 10.627263719269648 3.8020000000000023 10.126999999999994 C3.9255247595210996 10.044359676573297 3.9997695379871754 9.905619433985176 4.000000000000003 9.756999999999998 L4.000000000000003 9.686999999999996 C3.9999279217532764 9.561823942759842 3.9592210385637983 9.440054214598241 3.88400000000006 9.340000000000073 C3.11380983635249 8.315301345213129 3.2961893052273186 6.864233629262421 4.296000000000002 6.061999999999996 L4.794000000000003 5.662999999999996 C4.91772941764488 5.563985509255332 4.9667934777705165 5.398444168181028 4.9170000000000025 5.247999999999995 L4.847000000000003 5.040999999999996 C4.629681512523554 4.387456034207367 4.746639898883231 3.6688906125790632 5.160000000000004 3.117999999999996 C5.689003379453966 2.413448794210722 6.51895723286389 1.99921289773202 7.3999999999999995 2.000000000000001 L11.313 2.002 Z"/>
  </g>
</svg>
